<mxfile host="app.diagrams.net" modified="2023-09-28T02:00:54.069Z" agent="Mozilla/5.0 (Windows NT 10.0; Win64; x64) AppleWebKit/537.36 (KHTML, like Gecko) Chrome/117.0.0.0 Safari/537.36" version="21.8.2" etag="D7SifU49SCH3wnROs5o9" type="github">
  <diagram name="Page-1" id="fyCYb2retFs3KwuY-BMH">
    <mxGraphModel>
      <root>
        <mxCell id="0" />
        <mxCell id="1" parent="0" />
      </root>
    </mxGraphModel>
  </diagram>
</mxfile>
